<mxfile host="app.diagrams.net" agent="Mozilla/5.0 (Windows NT 10.0; Win64; x64) AppleWebKit/537.36 (KHTML, like Gecko) Chrome/136.0.0.0 Safari/537.36" version="27.0.9">
  <diagram name="Página-1" id="EfGLfTgFjvxFC4rImhk0">
    <mxGraphModel grid="1" page="1" gridSize="10" guides="1" tooltips="1" connect="1" arrows="1" fold="1" pageScale="1" pageWidth="1654" pageHeight="2336" math="0" shadow="0">
      <root>
        <mxCell id="0" />
        <mxCell id="1" parent="0" />
        <mxCell id="u9TwuQbv4ugJlJ8Z2nMY-3" style="edgeStyle=orthogonalEdgeStyle;rounded=0;orthogonalLoop=1;jettySize=auto;html=1;entryX=0;entryY=0.5;entryDx=0;entryDy=0;endArrow=open;endFill=0;endSize=8;" edge="1" parent="1" source="u9TwuQbv4ugJlJ8Z2nMY-1" target="u9TwuQbv4ugJlJ8Z2nMY-2">
          <mxGeometry relative="1" as="geometry" />
        </mxCell>
        <mxCell id="u9TwuQbv4ugJlJ8Z2nMY-1" value="" style="ellipse;fillColor=strokeColor;html=1;" vertex="1" parent="1">
          <mxGeometry x="20" y="155" width="30" height="30" as="geometry" />
        </mxCell>
        <mxCell id="u9TwuQbv4ugJlJ8Z2nMY-38" style="edgeStyle=orthogonalEdgeStyle;shape=connector;rounded=0;orthogonalLoop=1;jettySize=auto;html=1;entryX=0;entryY=0.5;entryDx=0;entryDy=0;strokeColor=default;align=center;verticalAlign=middle;fontFamily=Helvetica;fontSize=11;fontColor=default;labelBackgroundColor=default;endArrow=open;endFill=0;endSize=8;" edge="1" parent="1" source="u9TwuQbv4ugJlJ8Z2nMY-2" target="u9TwuQbv4ugJlJ8Z2nMY-4">
          <mxGeometry relative="1" as="geometry" />
        </mxCell>
        <mxCell id="u9TwuQbv4ugJlJ8Z2nMY-2" value="Usuario accede a la sección de resultados&amp;nbsp;" style="rounded=1;whiteSpace=wrap;html=1;" vertex="1" parent="1">
          <mxGeometry x="130" y="150" width="130" height="40" as="geometry" />
        </mxCell>
        <mxCell id="u9TwuQbv4ugJlJ8Z2nMY-39" style="edgeStyle=orthogonalEdgeStyle;shape=connector;rounded=0;orthogonalLoop=1;jettySize=auto;html=1;entryX=0;entryY=0.5;entryDx=0;entryDy=0;strokeColor=default;align=center;verticalAlign=middle;fontFamily=Helvetica;fontSize=11;fontColor=default;labelBackgroundColor=default;endArrow=open;endFill=0;endSize=8;" edge="1" parent="1" source="u9TwuQbv4ugJlJ8Z2nMY-4" target="u9TwuQbv4ugJlJ8Z2nMY-7">
          <mxGeometry relative="1" as="geometry" />
        </mxCell>
        <mxCell id="u9TwuQbv4ugJlJ8Z2nMY-4" value="Ingresar año y ciclo del reporte" style="rounded=1;whiteSpace=wrap;html=1;" vertex="1" parent="1">
          <mxGeometry x="370" y="150" width="130" height="40" as="geometry" />
        </mxCell>
        <mxCell id="u9TwuQbv4ugJlJ8Z2nMY-40" style="edgeStyle=orthogonalEdgeStyle;shape=connector;rounded=0;orthogonalLoop=1;jettySize=auto;html=1;entryX=0;entryY=0.5;entryDx=0;entryDy=0;strokeColor=default;align=center;verticalAlign=middle;fontFamily=Helvetica;fontSize=11;fontColor=default;labelBackgroundColor=default;endArrow=open;endFill=0;endSize=8;" edge="1" parent="1" source="u9TwuQbv4ugJlJ8Z2nMY-7" target="u9TwuQbv4ugJlJ8Z2nMY-9">
          <mxGeometry relative="1" as="geometry" />
        </mxCell>
        <mxCell id="u9TwuQbv4ugJlJ8Z2nMY-7" value="¿Datos completos?" style="rounded=1;whiteSpace=wrap;html=1;" vertex="1" parent="1">
          <mxGeometry x="557.5" y="150" width="102.5" height="40" as="geometry" />
        </mxCell>
        <mxCell id="u9TwuQbv4ugJlJ8Z2nMY-41" style="edgeStyle=orthogonalEdgeStyle;shape=connector;rounded=0;orthogonalLoop=1;jettySize=auto;html=1;entryX=0;entryY=0.5;entryDx=0;entryDy=0;strokeColor=default;align=center;verticalAlign=middle;fontFamily=Helvetica;fontSize=11;fontColor=default;labelBackgroundColor=default;endArrow=open;endFill=0;endSize=8;" edge="1" parent="1" source="u9TwuQbv4ugJlJ8Z2nMY-9" target="u9TwuQbv4ugJlJ8Z2nMY-16">
          <mxGeometry relative="1" as="geometry" />
        </mxCell>
        <mxCell id="u9TwuQbv4ugJlJ8Z2nMY-52" style="edgeStyle=orthogonalEdgeStyle;shape=connector;rounded=0;orthogonalLoop=1;jettySize=auto;html=1;entryX=1;entryY=0.5;entryDx=0;entryDy=0;strokeColor=default;align=center;verticalAlign=middle;fontFamily=Helvetica;fontSize=11;fontColor=default;labelBackgroundColor=default;endArrow=open;endFill=0;endSize=8;" edge="1" parent="1" source="u9TwuQbv4ugJlJ8Z2nMY-9" target="u9TwuQbv4ugJlJ8Z2nMY-12">
          <mxGeometry relative="1" as="geometry">
            <Array as="points">
              <mxPoint x="765" y="60" />
            </Array>
          </mxGeometry>
        </mxCell>
        <mxCell id="u9TwuQbv4ugJlJ8Z2nMY-9" value="" style="rhombus;whiteSpace=wrap;html=1;" vertex="1" parent="1">
          <mxGeometry x="740" y="150" width="50" height="40" as="geometry" />
        </mxCell>
        <mxCell id="u9TwuQbv4ugJlJ8Z2nMY-51" style="edgeStyle=orthogonalEdgeStyle;shape=connector;rounded=0;orthogonalLoop=1;jettySize=auto;html=1;entryX=0.5;entryY=0;entryDx=0;entryDy=0;strokeColor=default;align=center;verticalAlign=middle;fontFamily=Helvetica;fontSize=11;fontColor=default;labelBackgroundColor=default;endArrow=open;endFill=0;endSize=8;" edge="1" parent="1" source="u9TwuQbv4ugJlJ8Z2nMY-12" target="u9TwuQbv4ugJlJ8Z2nMY-4">
          <mxGeometry relative="1" as="geometry" />
        </mxCell>
        <mxCell id="u9TwuQbv4ugJlJ8Z2nMY-12" value="Mostrar mensaje de error" style="rounded=1;whiteSpace=wrap;html=1;" vertex="1" parent="1">
          <mxGeometry x="543.75" y="40" width="130" height="40" as="geometry" />
        </mxCell>
        <mxCell id="u9TwuQbv4ugJlJ8Z2nMY-15" value="No" style="text;html=1;align=center;verticalAlign=middle;resizable=0;points=[];autosize=1;strokeColor=none;fillColor=none;" vertex="1" parent="1">
          <mxGeometry x="760" y="130" width="40" height="30" as="geometry" />
        </mxCell>
        <mxCell id="u9TwuQbv4ugJlJ8Z2nMY-42" style="edgeStyle=orthogonalEdgeStyle;shape=connector;rounded=0;orthogonalLoop=1;jettySize=auto;html=1;entryX=0;entryY=0.5;entryDx=0;entryDy=0;strokeColor=default;align=center;verticalAlign=middle;fontFamily=Helvetica;fontSize=11;fontColor=default;labelBackgroundColor=default;endArrow=open;endFill=0;endSize=8;" edge="1" parent="1" source="u9TwuQbv4ugJlJ8Z2nMY-16" target="u9TwuQbv4ugJlJ8Z2nMY-19">
          <mxGeometry relative="1" as="geometry" />
        </mxCell>
        <mxCell id="u9TwuQbv4ugJlJ8Z2nMY-16" value="¿Carga manual o automática?" style="rounded=1;whiteSpace=wrap;html=1;" vertex="1" parent="1">
          <mxGeometry x="860" y="150" width="102.5" height="40" as="geometry" />
        </mxCell>
        <mxCell id="u9TwuQbv4ugJlJ8Z2nMY-18" value="Si" style="text;html=1;align=center;verticalAlign=middle;resizable=0;points=[];autosize=1;strokeColor=none;fillColor=none;" vertex="1" parent="1">
          <mxGeometry x="777" y="168" width="30" height="30" as="geometry" />
        </mxCell>
        <mxCell id="u9TwuQbv4ugJlJ8Z2nMY-45" style="edgeStyle=orthogonalEdgeStyle;shape=connector;rounded=0;orthogonalLoop=1;jettySize=auto;html=1;entryX=0.5;entryY=0;entryDx=0;entryDy=0;strokeColor=default;align=center;verticalAlign=middle;fontFamily=Helvetica;fontSize=11;fontColor=default;labelBackgroundColor=default;endArrow=open;endFill=0;endSize=8;" edge="1" parent="1" source="u9TwuQbv4ugJlJ8Z2nMY-19" target="u9TwuQbv4ugJlJ8Z2nMY-21">
          <mxGeometry relative="1" as="geometry" />
        </mxCell>
        <mxCell id="u9TwuQbv4ugJlJ8Z2nMY-50" style="edgeStyle=orthogonalEdgeStyle;shape=connector;rounded=0;orthogonalLoop=1;jettySize=auto;html=1;entryX=0;entryY=0.5;entryDx=0;entryDy=0;strokeColor=default;align=center;verticalAlign=middle;fontFamily=Helvetica;fontSize=11;fontColor=default;labelBackgroundColor=default;endArrow=open;endFill=0;endSize=8;" edge="1" parent="1" source="u9TwuQbv4ugJlJ8Z2nMY-19" target="u9TwuQbv4ugJlJ8Z2nMY-31">
          <mxGeometry relative="1" as="geometry" />
        </mxCell>
        <mxCell id="u9TwuQbv4ugJlJ8Z2nMY-19" value="" style="rhombus;whiteSpace=wrap;html=1;" vertex="1" parent="1">
          <mxGeometry x="1030" y="150" width="50" height="40" as="geometry" />
        </mxCell>
        <mxCell id="u9TwuQbv4ugJlJ8Z2nMY-47" style="edgeStyle=orthogonalEdgeStyle;shape=connector;rounded=0;orthogonalLoop=1;jettySize=auto;html=1;entryX=1;entryY=0.5;entryDx=0;entryDy=0;strokeColor=default;align=center;verticalAlign=middle;fontFamily=Helvetica;fontSize=11;fontColor=default;labelBackgroundColor=default;endArrow=open;endFill=0;endSize=8;" edge="1" parent="1" source="u9TwuQbv4ugJlJ8Z2nMY-21" target="u9TwuQbv4ugJlJ8Z2nMY-23">
          <mxGeometry relative="1" as="geometry" />
        </mxCell>
        <mxCell id="u9TwuQbv4ugJlJ8Z2nMY-21" value="Abre el explorador de archivos" style="rounded=1;whiteSpace=wrap;html=1;" vertex="1" parent="1">
          <mxGeometry x="1003.75" y="250" width="102.5" height="40" as="geometry" />
        </mxCell>
        <mxCell id="u9TwuQbv4ugJlJ8Z2nMY-48" style="edgeStyle=orthogonalEdgeStyle;shape=connector;rounded=0;orthogonalLoop=1;jettySize=auto;html=1;entryX=1;entryY=0.5;entryDx=0;entryDy=0;strokeColor=default;align=center;verticalAlign=middle;fontFamily=Helvetica;fontSize=11;fontColor=default;labelBackgroundColor=default;endArrow=open;endFill=0;endSize=8;" edge="1" parent="1" source="u9TwuQbv4ugJlJ8Z2nMY-23" target="u9TwuQbv4ugJlJ8Z2nMY-26">
          <mxGeometry relative="1" as="geometry" />
        </mxCell>
        <mxCell id="u9TwuQbv4ugJlJ8Z2nMY-23" value="Selecciona archivo" style="rounded=1;whiteSpace=wrap;html=1;" vertex="1" parent="1">
          <mxGeometry x="850" y="250" width="106.25" height="40" as="geometry" />
        </mxCell>
        <mxCell id="u9TwuQbv4ugJlJ8Z2nMY-49" style="edgeStyle=orthogonalEdgeStyle;shape=connector;rounded=0;orthogonalLoop=1;jettySize=auto;html=1;entryX=1;entryY=0.5;entryDx=0;entryDy=0;strokeColor=default;align=center;verticalAlign=middle;fontFamily=Helvetica;fontSize=11;fontColor=default;labelBackgroundColor=default;endArrow=open;endFill=0;endSize=8;" edge="1" parent="1" source="u9TwuQbv4ugJlJ8Z2nMY-26" target="u9TwuQbv4ugJlJ8Z2nMY-28">
          <mxGeometry relative="1" as="geometry" />
        </mxCell>
        <mxCell id="u9TwuQbv4ugJlJ8Z2nMY-26" value="Archivo cargado" style="rounded=1;whiteSpace=wrap;html=1;" vertex="1" parent="1">
          <mxGeometry x="700" y="250" width="106.25" height="40" as="geometry" />
        </mxCell>
        <mxCell id="u9TwuQbv4ugJlJ8Z2nMY-28" value="" style="ellipse;html=1;shape=endState;fillColor=strokeColor;fontFamily=Helvetica;fontSize=11;fontColor=default;labelBackgroundColor=default;" vertex="1" parent="1">
          <mxGeometry x="610" y="255" width="30" height="30" as="geometry" />
        </mxCell>
        <mxCell id="u9TwuQbv4ugJlJ8Z2nMY-30" value="Manual" style="text;html=1;align=center;verticalAlign=middle;resizable=0;points=[];autosize=1;strokeColor=none;fillColor=none;" vertex="1" parent="1">
          <mxGeometry x="1050" y="185" width="60" height="30" as="geometry" />
        </mxCell>
        <mxCell id="u9TwuQbv4ugJlJ8Z2nMY-43" style="edgeStyle=orthogonalEdgeStyle;shape=connector;rounded=0;orthogonalLoop=1;jettySize=auto;html=1;entryX=0.5;entryY=0;entryDx=0;entryDy=0;strokeColor=default;align=center;verticalAlign=middle;fontFamily=Helvetica;fontSize=11;fontColor=default;labelBackgroundColor=default;endArrow=open;endFill=0;endSize=8;" edge="1" parent="1" source="u9TwuQbv4ugJlJ8Z2nMY-31" target="u9TwuQbv4ugJlJ8Z2nMY-34">
          <mxGeometry relative="1" as="geometry" />
        </mxCell>
        <mxCell id="u9TwuQbv4ugJlJ8Z2nMY-31" value="Conexión a Datos Abiertos" style="rounded=1;whiteSpace=wrap;html=1;" vertex="1" parent="1">
          <mxGeometry x="1160" y="150" width="102.5" height="40" as="geometry" />
        </mxCell>
        <mxCell id="u9TwuQbv4ugJlJ8Z2nMY-33" value="Automática" style="text;html=1;align=center;verticalAlign=middle;resizable=0;points=[];autosize=1;strokeColor=none;fillColor=none;" vertex="1" parent="1">
          <mxGeometry x="1060" y="138" width="80" height="30" as="geometry" />
        </mxCell>
        <mxCell id="u9TwuQbv4ugJlJ8Z2nMY-44" style="edgeStyle=orthogonalEdgeStyle;shape=connector;rounded=0;orthogonalLoop=1;jettySize=auto;html=1;entryX=0.5;entryY=0;entryDx=0;entryDy=0;strokeColor=default;align=center;verticalAlign=middle;fontFamily=Helvetica;fontSize=11;fontColor=default;labelBackgroundColor=default;endArrow=open;endFill=0;endSize=8;" edge="1" parent="1" source="u9TwuQbv4ugJlJ8Z2nMY-34" target="u9TwuQbv4ugJlJ8Z2nMY-36">
          <mxGeometry relative="1" as="geometry" />
        </mxCell>
        <mxCell id="u9TwuQbv4ugJlJ8Z2nMY-34" value="Datos cargados" style="rounded=1;whiteSpace=wrap;html=1;" vertex="1" parent="1">
          <mxGeometry x="1160" y="245" width="102.5" height="40" as="geometry" />
        </mxCell>
        <mxCell id="u9TwuQbv4ugJlJ8Z2nMY-36" value="" style="ellipse;html=1;shape=endState;fillColor=strokeColor;fontFamily=Helvetica;fontSize=11;fontColor=default;labelBackgroundColor=default;" vertex="1" parent="1">
          <mxGeometry x="1196.25" y="330" width="30" height="30" as="geometry" />
        </mxCell>
      </root>
    </mxGraphModel>
  </diagram>
</mxfile>
